<mxfile host="app.diagrams.net" modified="2024-07-17T02:42:25.879Z" agent="Mozilla/5.0 (Macintosh; Intel Mac OS X 10_15_7) AppleWebKit/605.1.15 (KHTML, like Gecko) Version/17.5 Safari/605.1.15" etag="PSzcnAgJdb-PgumJWvja" version="24.6.5" type="device">
  <diagram name="Page-1" id="uHuE6cg2GW2eRnbbnOSD">
    <mxGraphModel dx="1475" dy="916" grid="1" gridSize="10" guides="1" tooltips="1" connect="1" arrows="1" fold="1" page="1" pageScale="1" pageWidth="827" pageHeight="1169" math="0" shadow="0">
      <root>
        <mxCell id="0" />
        <mxCell id="1" parent="0" />
        <mxCell id="J9xpBMAO4fcrb7Eu_Uhc-311" style="edgeStyle=orthogonalEdgeStyle;rounded=0;orthogonalLoop=1;jettySize=auto;html=1;exitX=0.25;exitY=1;exitDx=0;exitDy=0;entryX=0;entryY=0.5;entryDx=0;entryDy=0;curved=1;strokeWidth=2;" edge="1" parent="1" source="J9xpBMAO4fcrb7Eu_Uhc-225" target="J9xpBMAO4fcrb7Eu_Uhc-181">
          <mxGeometry relative="1" as="geometry">
            <Array as="points">
              <mxPoint x="110" y="288" />
              <mxPoint x="110" y="398" />
            </Array>
          </mxGeometry>
        </mxCell>
        <mxCell id="J9xpBMAO4fcrb7Eu_Uhc-225" value="previous Events" style="rounded=0;whiteSpace=wrap;html=1;fontSize=16;container=0;fillColor=#f5f5f5;fontColor=#333333;strokeColor=#666666;fontStyle=1" vertex="1" parent="1">
          <mxGeometry x="89" y="248" width="141" height="40" as="geometry" />
        </mxCell>
        <mxCell id="J9xpBMAO4fcrb7Eu_Uhc-226" value="more Events" style="rounded=0;whiteSpace=wrap;html=1;fontSize=16;container=0;fillColor=#f5f5f5;fontColor=#333333;strokeColor=#666666;fontStyle=1" vertex="1" parent="1">
          <mxGeometry x="710" y="378" width="130" height="40" as="geometry" />
        </mxCell>
        <mxCell id="J9xpBMAO4fcrb7Eu_Uhc-181" value="Position" style="rounded=0;whiteSpace=wrap;html=1;horizontal=0;fontSize=16;align=center;container=0;fillColor=#d5e8d4;strokeColor=#82b366;" vertex="1" parent="1">
          <mxGeometry x="150" y="348" width="40" height="100" as="geometry" />
        </mxCell>
        <mxCell id="J9xpBMAO4fcrb7Eu_Uhc-182" value="Tempo" style="rounded=0;whiteSpace=wrap;html=1;horizontal=0;fontSize=16;align=center;container=0;fillColor=#dae8fc;strokeColor=#6c8ebf;" vertex="1" parent="1">
          <mxGeometry x="190" y="348" width="40" height="100" as="geometry" />
        </mxCell>
        <mxCell id="J9xpBMAO4fcrb7Eu_Uhc-183" value="Instrument" style="rounded=0;whiteSpace=wrap;html=1;horizontal=0;fontSize=16;align=center;container=0;fillColor=#e1d5e7;strokeColor=#9673a6;" vertex="1" parent="1">
          <mxGeometry x="230" y="348" width="40" height="100" as="geometry" />
        </mxCell>
        <mxCell id="J9xpBMAO4fcrb7Eu_Uhc-184" value="0" style="rounded=0;whiteSpace=wrap;html=1;horizontal=0;fontSize=16;container=0;fillColor=#d5e8d4;strokeColor=#82b366;" vertex="1" parent="1">
          <mxGeometry x="150" y="298" width="40" height="50" as="geometry" />
        </mxCell>
        <mxCell id="J9xpBMAO4fcrb7Eu_Uhc-185" value="25" style="rounded=0;whiteSpace=wrap;html=1;horizontal=0;fontSize=16;container=0;fillColor=#dae8fc;strokeColor=#6c8ebf;" vertex="1" parent="1">
          <mxGeometry x="190" y="298" width="40" height="50" as="geometry" />
        </mxCell>
        <mxCell id="J9xpBMAO4fcrb7Eu_Uhc-186" value="40" style="rounded=0;whiteSpace=wrap;html=1;horizontal=0;fontSize=16;container=0;fillColor=#e1d5e7;strokeColor=#9673a6;" vertex="1" parent="1">
          <mxGeometry x="230" y="298" width="40" height="50" as="geometry" />
        </mxCell>
        <mxCell id="J9xpBMAO4fcrb7Eu_Uhc-187" value="62" style="rounded=0;whiteSpace=wrap;html=1;horizontal=0;fontSize=16;container=0;fillColor=#f8cecc;strokeColor=#b85450;" vertex="1" parent="1">
          <mxGeometry x="270" y="298" width="40" height="50" as="geometry" />
        </mxCell>
        <mxCell id="J9xpBMAO4fcrb7Eu_Uhc-188" value="Pitch" style="rounded=0;whiteSpace=wrap;html=1;horizontal=0;fontSize=16;align=center;container=0;fillColor=#f8cecc;strokeColor=#b85450;" vertex="1" parent="1">
          <mxGeometry x="270" y="348" width="40" height="100" as="geometry" />
        </mxCell>
        <mxCell id="J9xpBMAO4fcrb7Eu_Uhc-189" value="Duration" style="rounded=0;whiteSpace=wrap;html=1;horizontal=0;fontSize=16;align=center;container=0;fillColor=#ffe6cc;strokeColor=#d79b00;" vertex="1" parent="1">
          <mxGeometry x="310" y="348" width="40" height="100" as="geometry" />
        </mxCell>
        <mxCell id="J9xpBMAO4fcrb7Eu_Uhc-190" value="6" style="rounded=0;whiteSpace=wrap;html=1;horizontal=0;fontSize=16;container=0;fillColor=#ffe6cc;strokeColor=#d79b00;" vertex="1" parent="1">
          <mxGeometry x="310" y="298" width="40" height="50" as="geometry" />
        </mxCell>
        <mxCell id="J9xpBMAO4fcrb7Eu_Uhc-191" value="20" style="rounded=0;whiteSpace=wrap;html=1;horizontal=0;fontSize=16;container=0;fillColor=#F2FFA1;strokeColor=#d6b656;" vertex="1" parent="1">
          <mxGeometry x="350" y="298" width="40" height="50" as="geometry" />
        </mxCell>
        <mxCell id="J9xpBMAO4fcrb7Eu_Uhc-231" style="edgeStyle=orthogonalEdgeStyle;rounded=0;orthogonalLoop=1;jettySize=auto;html=1;entryX=0;entryY=0.5;entryDx=0;entryDy=0;strokeWidth=2;" edge="1" parent="1" source="J9xpBMAO4fcrb7Eu_Uhc-192" target="J9xpBMAO4fcrb7Eu_Uhc-195">
          <mxGeometry relative="1" as="geometry" />
        </mxCell>
        <mxCell id="J9xpBMAO4fcrb7Eu_Uhc-192" value="Velocity" style="rounded=0;whiteSpace=wrap;html=1;horizontal=0;fontSize=16;align=center;container=0;fillColor=#F2FFA1;strokeColor=#d6b656;" vertex="1" parent="1">
          <mxGeometry x="350" y="348" width="40" height="100" as="geometry" />
        </mxCell>
        <mxCell id="J9xpBMAO4fcrb7Eu_Uhc-195" value="Position" style="rounded=0;whiteSpace=wrap;html=1;horizontal=0;fontSize=16;align=center;container=0;fillColor=#d5e8d4;strokeColor=#82b366;" vertex="1" parent="1">
          <mxGeometry x="430" y="348" width="40" height="100" as="geometry" />
        </mxCell>
        <mxCell id="J9xpBMAO4fcrb7Eu_Uhc-196" value="Tempo" style="rounded=0;whiteSpace=wrap;html=1;horizontal=0;fontSize=16;align=center;container=0;fillColor=#dae8fc;strokeColor=#6c8ebf;" vertex="1" parent="1">
          <mxGeometry x="470" y="348" width="40" height="100" as="geometry" />
        </mxCell>
        <mxCell id="J9xpBMAO4fcrb7Eu_Uhc-197" value="Pitch" style="rounded=0;whiteSpace=wrap;html=1;horizontal=0;fontSize=16;align=center;fontStyle=1;container=0;fillColor=#f8cecc;strokeColor=#b85450;" vertex="1" parent="1">
          <mxGeometry x="510" y="348" width="40" height="100" as="geometry" />
        </mxCell>
        <mxCell id="J9xpBMAO4fcrb7Eu_Uhc-198" value="2" style="rounded=0;whiteSpace=wrap;html=1;horizontal=0;fontSize=16;container=0;fillColor=#d5e8d4;strokeColor=#82b366;" vertex="1" parent="1">
          <mxGeometry x="430" y="298" width="40" height="50" as="geometry" />
        </mxCell>
        <mxCell id="J9xpBMAO4fcrb7Eu_Uhc-199" value="25" style="rounded=0;whiteSpace=wrap;html=1;horizontal=0;fontSize=16;container=0;fillColor=#dae8fc;strokeColor=#6c8ebf;" vertex="1" parent="1">
          <mxGeometry x="470" y="298" width="40" height="50" as="geometry" />
        </mxCell>
        <mxCell id="J9xpBMAO4fcrb7Eu_Uhc-200" value="60" style="rounded=0;whiteSpace=wrap;html=1;horizontal=0;fontSize=16;container=0;fillColor=#f8cecc;strokeColor=#b85450;" vertex="1" parent="1">
          <mxGeometry x="510" y="298" width="40" height="50" as="geometry" />
        </mxCell>
        <mxCell id="J9xpBMAO4fcrb7Eu_Uhc-201" value="20" style="rounded=0;whiteSpace=wrap;html=1;horizontal=0;fontSize=16;container=0;fillColor=#dae8fc;strokeColor=#6c8ebf;" vertex="1" parent="1">
          <mxGeometry x="550" y="298" width="40" height="50" as="geometry" />
        </mxCell>
        <mxCell id="J9xpBMAO4fcrb7Eu_Uhc-202" value="Tempo" style="rounded=0;whiteSpace=wrap;html=1;horizontal=0;fontSize=16;align=center;container=0;fontStyle=1;fillColor=#dae8fc;strokeColor=#6c8ebf;" vertex="1" parent="1">
          <mxGeometry x="550" y="348" width="40" height="100" as="geometry" />
        </mxCell>
        <mxCell id="J9xpBMAO4fcrb7Eu_Uhc-203" value="Velocity" style="rounded=0;whiteSpace=wrap;html=1;horizontal=0;fontSize=16;align=center;fontStyle=1;container=0;fillColor=#F2FFA1;strokeColor=#d6b656;" vertex="1" parent="1">
          <mxGeometry x="590" y="348" width="40" height="100" as="geometry" />
        </mxCell>
        <mxCell id="J9xpBMAO4fcrb7Eu_Uhc-204" value="22" style="rounded=0;whiteSpace=wrap;html=1;horizontal=0;fontSize=16;container=0;fillColor=#F2FFA1;strokeColor=#d6b656;" vertex="1" parent="1">
          <mxGeometry x="590" y="298" width="40" height="50" as="geometry" />
        </mxCell>
        <mxCell id="J9xpBMAO4fcrb7Eu_Uhc-205" value="24" style="rounded=0;whiteSpace=wrap;html=1;horizontal=0;fontSize=16;container=0;fillColor=#F2FFA1;strokeColor=#d6b656;" vertex="1" parent="1">
          <mxGeometry x="630" y="298" width="40" height="50" as="geometry" />
        </mxCell>
        <mxCell id="J9xpBMAO4fcrb7Eu_Uhc-232" style="edgeStyle=orthogonalEdgeStyle;rounded=0;orthogonalLoop=1;jettySize=auto;html=1;entryX=0;entryY=0.5;entryDx=0;entryDy=0;strokeWidth=2;" edge="1" parent="1" source="J9xpBMAO4fcrb7Eu_Uhc-206" target="J9xpBMAO4fcrb7Eu_Uhc-226">
          <mxGeometry relative="1" as="geometry" />
        </mxCell>
        <mxCell id="J9xpBMAO4fcrb7Eu_Uhc-206" value="Velocity" style="rounded=0;whiteSpace=wrap;html=1;horizontal=0;fontSize=16;align=center;container=0;fillColor=#F2FFA1;strokeColor=#d6b656;fontStyle=1" vertex="1" parent="1">
          <mxGeometry x="630" y="348" width="40" height="100" as="geometry" />
        </mxCell>
        <mxCell id="J9xpBMAO4fcrb7Eu_Uhc-263" style="edgeStyle=orthogonalEdgeStyle;rounded=0;orthogonalLoop=1;jettySize=auto;html=1;exitX=0.25;exitY=1;exitDx=0;exitDy=0;entryX=0;entryY=0.5;entryDx=0;entryDy=0;curved=1;strokeWidth=2;" edge="1" parent="1" source="J9xpBMAO4fcrb7Eu_Uhc-264" target="J9xpBMAO4fcrb7Eu_Uhc-266">
          <mxGeometry relative="1" as="geometry">
            <Array as="points">
              <mxPoint x="890" y="288" />
              <mxPoint x="890" y="398" />
            </Array>
          </mxGeometry>
        </mxCell>
        <mxCell id="J9xpBMAO4fcrb7Eu_Uhc-264" value="previous Events" style="rounded=0;whiteSpace=wrap;html=1;fontSize=16;container=0;fillColor=#f5f5f5;fontColor=#333333;strokeColor=#666666;fontStyle=1" vertex="1" parent="1">
          <mxGeometry x="865" y="248" width="145" height="40" as="geometry" />
        </mxCell>
        <mxCell id="J9xpBMAO4fcrb7Eu_Uhc-265" value="more Events" style="rounded=0;whiteSpace=wrap;html=1;fontSize=16;container=0;fillColor=#f5f5f5;fontColor=#333333;strokeColor=#666666;fontStyle=1" vertex="1" parent="1">
          <mxGeometry x="1490" y="378" width="130" height="40" as="geometry" />
        </mxCell>
        <mxCell id="J9xpBMAO4fcrb7Eu_Uhc-266" value="Position" style="rounded=0;whiteSpace=wrap;html=1;horizontal=0;fontSize=16;align=center;container=0;fillColor=#d5e8d4;strokeColor=#82b366;" vertex="1" parent="1">
          <mxGeometry x="926" y="348" width="40" height="100" as="geometry" />
        </mxCell>
        <mxCell id="J9xpBMAO4fcrb7Eu_Uhc-267" value="Tempo" style="rounded=0;whiteSpace=wrap;html=1;horizontal=0;fontSize=16;align=center;container=0;fillColor=#dae8fc;strokeColor=#6c8ebf;" vertex="1" parent="1">
          <mxGeometry x="966" y="348" width="40" height="100" as="geometry" />
        </mxCell>
        <mxCell id="J9xpBMAO4fcrb7Eu_Uhc-268" value="Instrument" style="rounded=0;whiteSpace=wrap;html=1;horizontal=0;fontSize=16;align=center;container=0;fillColor=#e1d5e7;strokeColor=#9673a6;" vertex="1" parent="1">
          <mxGeometry x="1006" y="348" width="40" height="100" as="geometry" />
        </mxCell>
        <mxCell id="J9xpBMAO4fcrb7Eu_Uhc-269" value="0" style="rounded=0;whiteSpace=wrap;html=1;horizontal=0;fontSize=16;container=0;fillColor=#d5e8d4;strokeColor=#82b366;" vertex="1" parent="1">
          <mxGeometry x="926" y="298" width="40" height="50" as="geometry" />
        </mxCell>
        <mxCell id="J9xpBMAO4fcrb7Eu_Uhc-270" value="25" style="rounded=0;whiteSpace=wrap;html=1;horizontal=0;fontSize=16;container=0;fillColor=#dae8fc;strokeColor=#6c8ebf;" vertex="1" parent="1">
          <mxGeometry x="966" y="298" width="40" height="50" as="geometry" />
        </mxCell>
        <mxCell id="J9xpBMAO4fcrb7Eu_Uhc-271" value="40" style="rounded=0;whiteSpace=wrap;html=1;horizontal=0;fontSize=16;container=0;fillColor=#e1d5e7;strokeColor=#9673a6;" vertex="1" parent="1">
          <mxGeometry x="1006" y="298" width="40" height="50" as="geometry" />
        </mxCell>
        <mxCell id="J9xpBMAO4fcrb7Eu_Uhc-272" value="62" style="rounded=0;whiteSpace=wrap;html=1;horizontal=0;fontSize=16;container=0;fillColor=#f8cecc;strokeColor=#b85450;" vertex="1" parent="1">
          <mxGeometry x="1046" y="298" width="40" height="50" as="geometry" />
        </mxCell>
        <mxCell id="J9xpBMAO4fcrb7Eu_Uhc-273" value="Pitch" style="rounded=0;whiteSpace=wrap;html=1;horizontal=0;fontSize=16;align=center;container=0;fillColor=#f8cecc;strokeColor=#b85450;" vertex="1" parent="1">
          <mxGeometry x="1046" y="348" width="40" height="100" as="geometry" />
        </mxCell>
        <mxCell id="J9xpBMAO4fcrb7Eu_Uhc-274" value="Duration" style="rounded=0;whiteSpace=wrap;html=1;horizontal=0;fontSize=16;align=center;container=0;fillColor=#ffe6cc;strokeColor=#d79b00;" vertex="1" parent="1">
          <mxGeometry x="1086" y="348" width="40" height="100" as="geometry" />
        </mxCell>
        <mxCell id="J9xpBMAO4fcrb7Eu_Uhc-275" value="6" style="rounded=0;whiteSpace=wrap;html=1;horizontal=0;fontSize=16;container=0;fillColor=#ffe6cc;strokeColor=#d79b00;" vertex="1" parent="1">
          <mxGeometry x="1086" y="298" width="40" height="50" as="geometry" />
        </mxCell>
        <mxCell id="J9xpBMAO4fcrb7Eu_Uhc-276" value="20" style="rounded=0;whiteSpace=wrap;html=1;horizontal=0;fontSize=16;container=0;fillColor=#F2FFA1;strokeColor=#d6b656;" vertex="1" parent="1">
          <mxGeometry x="1126" y="298" width="40" height="50" as="geometry" />
        </mxCell>
        <mxCell id="J9xpBMAO4fcrb7Eu_Uhc-277" style="edgeStyle=orthogonalEdgeStyle;rounded=0;orthogonalLoop=1;jettySize=auto;html=1;entryX=0;entryY=0.5;entryDx=0;entryDy=0;strokeWidth=2;" edge="1" parent="1" source="J9xpBMAO4fcrb7Eu_Uhc-278" target="J9xpBMAO4fcrb7Eu_Uhc-279">
          <mxGeometry relative="1" as="geometry" />
        </mxCell>
        <mxCell id="J9xpBMAO4fcrb7Eu_Uhc-278" value="Velocity" style="rounded=0;whiteSpace=wrap;html=1;horizontal=0;fontSize=16;align=center;container=0;fillColor=#F2FFA1;strokeColor=#d6b656;" vertex="1" parent="1">
          <mxGeometry x="1126" y="348" width="40" height="100" as="geometry" />
        </mxCell>
        <mxCell id="J9xpBMAO4fcrb7Eu_Uhc-279" value="Position" style="rounded=0;whiteSpace=wrap;html=1;horizontal=0;fontSize=16;align=center;container=0;fillColor=#d5e8d4;strokeColor=#82b366;" vertex="1" parent="1">
          <mxGeometry x="1210" y="348" width="40" height="100" as="geometry" />
        </mxCell>
        <mxCell id="J9xpBMAO4fcrb7Eu_Uhc-280" value="Tempo" style="rounded=0;whiteSpace=wrap;html=1;horizontal=0;fontSize=16;align=center;container=0;fillColor=#dae8fc;strokeColor=#6c8ebf;" vertex="1" parent="1">
          <mxGeometry x="1250" y="348" width="40" height="100" as="geometry" />
        </mxCell>
        <mxCell id="J9xpBMAO4fcrb7Eu_Uhc-281" value="Instrument" style="rounded=0;whiteSpace=wrap;html=1;horizontal=0;fontSize=16;align=center;fontStyle=1;container=0;fillColor=#e1d5e7;strokeColor=#9673a6;" vertex="1" parent="1">
          <mxGeometry x="1290" y="348" width="40" height="100" as="geometry" />
        </mxCell>
        <mxCell id="J9xpBMAO4fcrb7Eu_Uhc-282" value="2" style="rounded=0;whiteSpace=wrap;html=1;horizontal=0;fontSize=16;container=0;fillColor=#d5e8d4;strokeColor=#82b366;" vertex="1" parent="1">
          <mxGeometry x="1210" y="298" width="40" height="50" as="geometry" />
        </mxCell>
        <mxCell id="J9xpBMAO4fcrb7Eu_Uhc-283" value="25" style="rounded=0;whiteSpace=wrap;html=1;horizontal=0;fontSize=16;container=0;fillColor=#dae8fc;strokeColor=#6c8ebf;" vertex="1" parent="1">
          <mxGeometry x="1250" y="298" width="40" height="50" as="geometry" />
        </mxCell>
        <mxCell id="J9xpBMAO4fcrb7Eu_Uhc-284" value="40" style="rounded=0;whiteSpace=wrap;html=1;horizontal=0;fontSize=16;container=0;fillColor=#e1d5e7;strokeColor=#9673a6;" vertex="1" parent="1">
          <mxGeometry x="1290" y="298" width="40" height="50" as="geometry" />
        </mxCell>
        <mxCell id="J9xpBMAO4fcrb7Eu_Uhc-285" value="60" style="rounded=0;whiteSpace=wrap;html=1;horizontal=0;fontSize=16;container=0;fillColor=#f8cecc;strokeColor=#b85450;" vertex="1" parent="1">
          <mxGeometry x="1330" y="298" width="40" height="50" as="geometry" />
        </mxCell>
        <mxCell id="J9xpBMAO4fcrb7Eu_Uhc-286" value="Pitch" style="rounded=0;whiteSpace=wrap;html=1;horizontal=0;fontSize=16;align=center;container=0;fillColor=#f8cecc;strokeColor=#b85450;fontStyle=1" vertex="1" parent="1">
          <mxGeometry x="1330" y="348" width="40" height="100" as="geometry" />
        </mxCell>
        <mxCell id="J9xpBMAO4fcrb7Eu_Uhc-287" value="Duration" style="rounded=0;whiteSpace=wrap;html=1;horizontal=0;fontSize=16;align=center;fontStyle=1;container=0;fillColor=#ffe6cc;strokeColor=#d79b00;" vertex="1" parent="1">
          <mxGeometry x="1370" y="348" width="40" height="100" as="geometry" />
        </mxCell>
        <mxCell id="J9xpBMAO4fcrb7Eu_Uhc-288" value="6" style="rounded=0;whiteSpace=wrap;html=1;horizontal=0;fontSize=16;container=0;fillColor=#ffe6cc;strokeColor=#d79b00;" vertex="1" parent="1">
          <mxGeometry x="1370" y="298" width="40" height="50" as="geometry" />
        </mxCell>
        <mxCell id="J9xpBMAO4fcrb7Eu_Uhc-289" value="22" style="rounded=0;whiteSpace=wrap;html=1;horizontal=0;fontSize=16;container=0;fillColor=#F2FFA1;strokeColor=#d6b656;" vertex="1" parent="1">
          <mxGeometry x="1410" y="298" width="40" height="50" as="geometry" />
        </mxCell>
        <mxCell id="J9xpBMAO4fcrb7Eu_Uhc-290" style="edgeStyle=orthogonalEdgeStyle;rounded=0;orthogonalLoop=1;jettySize=auto;html=1;entryX=0;entryY=0.5;entryDx=0;entryDy=0;strokeWidth=2;" edge="1" parent="1" source="J9xpBMAO4fcrb7Eu_Uhc-291" target="J9xpBMAO4fcrb7Eu_Uhc-265">
          <mxGeometry relative="1" as="geometry" />
        </mxCell>
        <mxCell id="J9xpBMAO4fcrb7Eu_Uhc-291" value="Velocity" style="rounded=0;whiteSpace=wrap;html=1;horizontal=0;fontSize=16;align=center;container=0;fillColor=#F2FFA1;strokeColor=#d6b656;fontStyle=1" vertex="1" parent="1">
          <mxGeometry x="1410" y="348" width="40" height="100" as="geometry" />
        </mxCell>
        <mxCell id="J9xpBMAO4fcrb7Eu_Uhc-294" style="edgeStyle=orthogonalEdgeStyle;rounded=0;orthogonalLoop=1;jettySize=auto;html=1;entryX=0.5;entryY=0;entryDx=0;entryDy=0;strokeWidth=2;curved=1;" edge="1" parent="1" source="J9xpBMAO4fcrb7Eu_Uhc-292" target="J9xpBMAO4fcrb7Eu_Uhc-200">
          <mxGeometry relative="1" as="geometry" />
        </mxCell>
        <mxCell id="J9xpBMAO4fcrb7Eu_Uhc-292" value="ERROR starts from here" style="rounded=0;whiteSpace=wrap;html=1;fontSize=16;container=0;fillColor=#f5f5f5;fontColor=#333333;strokeColor=#666666;" vertex="1" parent="1">
          <mxGeometry x="390" y="220" width="205" height="40" as="geometry" />
        </mxCell>
        <mxCell id="J9xpBMAO4fcrb7Eu_Uhc-296" style="edgeStyle=orthogonalEdgeStyle;rounded=0;orthogonalLoop=1;jettySize=auto;html=1;entryX=0.5;entryY=0;entryDx=0;entryDy=0;curved=1;strokeWidth=2;" edge="1" parent="1" source="J9xpBMAO4fcrb7Eu_Uhc-295" target="J9xpBMAO4fcrb7Eu_Uhc-284">
          <mxGeometry relative="1" as="geometry" />
        </mxCell>
        <mxCell id="J9xpBMAO4fcrb7Eu_Uhc-295" value="New structure from here" style="rounded=0;whiteSpace=wrap;html=1;fontSize=16;container=0;fillColor=#f5f5f5;fontColor=#333333;strokeColor=#666666;" vertex="1" parent="1">
          <mxGeometry x="1160" y="220" width="206" height="40" as="geometry" />
        </mxCell>
        <mxCell id="J9xpBMAO4fcrb7Eu_Uhc-303" value="" style="group" vertex="1" connectable="0" parent="1">
          <mxGeometry x="1200" y="448" width="260" height="22" as="geometry" />
        </mxCell>
        <mxCell id="J9xpBMAO4fcrb7Eu_Uhc-299" value="" style="endArrow=none;html=1;rounded=0;strokeWidth=2;" edge="1" parent="J9xpBMAO4fcrb7Eu_Uhc-303">
          <mxGeometry width="50" height="50" relative="1" as="geometry">
            <mxPoint as="sourcePoint" />
            <mxPoint x="260" as="targetPoint" />
            <Array as="points">
              <mxPoint y="22" />
              <mxPoint x="260" y="22" />
            </Array>
          </mxGeometry>
        </mxCell>
        <mxCell id="J9xpBMAO4fcrb7Eu_Uhc-302" value="" style="rounded=0;whiteSpace=wrap;html=1;fillColor=none;strokeColor=none;" vertex="1" parent="J9xpBMAO4fcrb7Eu_Uhc-303">
          <mxGeometry y="2" width="260" height="20" as="geometry" />
        </mxCell>
        <mxCell id="J9xpBMAO4fcrb7Eu_Uhc-304" value="" style="group" vertex="1" connectable="0" parent="1">
          <mxGeometry x="140" y="448" width="260" height="22" as="geometry" />
        </mxCell>
        <mxCell id="J9xpBMAO4fcrb7Eu_Uhc-298" value="" style="endArrow=none;html=1;rounded=0;strokeWidth=2;" edge="1" parent="J9xpBMAO4fcrb7Eu_Uhc-304">
          <mxGeometry width="50" height="50" relative="1" as="geometry">
            <mxPoint as="sourcePoint" />
            <mxPoint x="260" as="targetPoint" />
            <Array as="points">
              <mxPoint y="22" />
              <mxPoint x="260" y="22" />
            </Array>
          </mxGeometry>
        </mxCell>
        <mxCell id="J9xpBMAO4fcrb7Eu_Uhc-301" value="" style="rounded=0;whiteSpace=wrap;html=1;fillColor=none;strokeColor=none;" vertex="1" parent="J9xpBMAO4fcrb7Eu_Uhc-304">
          <mxGeometry y="2" width="260" height="20" as="geometry" />
        </mxCell>
        <mxCell id="J9xpBMAO4fcrb7Eu_Uhc-305" style="edgeStyle=orthogonalEdgeStyle;rounded=1;orthogonalLoop=1;jettySize=auto;html=1;strokeWidth=2;curved=0;dashed=1;" edge="1" parent="1">
          <mxGeometry relative="1" as="geometry">
            <mxPoint x="1330" y="470" as="targetPoint" />
            <mxPoint x="270" y="470" as="sourcePoint" />
            <Array as="points">
              <mxPoint x="269.91" y="490" />
              <mxPoint x="1329.91" y="490" />
            </Array>
          </mxGeometry>
        </mxCell>
        <mxCell id="J9xpBMAO4fcrb7Eu_Uhc-310" value="Copy the Valid Structure" style="edgeLabel;html=1;align=center;verticalAlign=middle;resizable=0;points=[];fontSize=16;fontStyle=1" vertex="1" connectable="0" parent="J9xpBMAO4fcrb7Eu_Uhc-305">
          <mxGeometry x="-0.0424" y="-2" relative="1" as="geometry">
            <mxPoint x="-1" y="-2" as="offset" />
          </mxGeometry>
        </mxCell>
      </root>
    </mxGraphModel>
  </diagram>
</mxfile>
